<svg width="24" height="22" viewBox="0 0 24 22" fill="none" xmlns="http://www.w3.org/2000/svg">
<path d="M22.875 9.063C20.433 14.28 14.538 21.382 10.812 21.382C7.14 21.382 6.609 13.551 4.604 8.339C3.617 5.774 2.98 6.363 1.13 7.658L0.00200081 6.203C2.7 3.831 5.4 1.076 7.059 0.923001C8.927 0.744001 10.077 2.021 10.507 4.755C11.075 8.348 11.869 13.925 13.255 13.925C14.335 13.925 16.996 9.501 17.133 7.919C17.376 5.603 15.43 5.533 13.741 6.256C16.414 -2.498 27.534 -0.886 22.875 9.063Z" fill="white"/>
</svg>
